<svg xmlns="http://www.w3.org/2000/svg"
width="900"
height="230"
viewBox="0 0 900 230">

<rect
    width="100%"
    height="100%"
    rx="12"
    fill="#0D1117"
    stroke="#30363D"
    stroke-width="1"/>


<text
    x="24"
    y="34"
    font-family="'JetBrains Mono', 'DejaVu Sans Mono', monospace"
    font-size="14"
    fill="#8B949E"
    letter-spacing="1">CONTRIBUTIONS / LAST 365 DAYS</text>


<text
    x="24"
    y="100"
    font-family="'JetBrains Mono', 'DejaVu Sans Mono', monospace"
    font-size="54"
    font-weight="700"
    fill="#A9FEF7">415</text>

<text
    x="27"
    y="128"
    font-family="'JetBrains Mono', 'DejaVu Sans Mono', monospace"
    font-size="13"
    fill="#8B949E">total contributions</text>


<polyline
    points="250.00,169.31 261.96,180.00 273.92,180.00 285.88,180.00 297.84,166.25 309.80,173.89 321.76,173.89 333.73,180.00 345.69,180.00 357.65,173.89 369.61,173.89 381.57,167.78 393.53,167.78 405.49,169.31 417.45,175.42 429.41,166.25 441.37,163.19 453.33,180.00 465.29,180.00 477.25,180.00 489.22,180.00 501.18,176.94 513.14,178.47 525.10,175.42 537.06,167.78 549.02,149.44 560.98,121.94 572.94,70.00 584.90,140.28 596.86,180.00 608.82,155.56 620.78,180.00 632.75,178.47 644.71,173.89 656.67,178.47 668.63,178.47 680.59,152.50 692.55,146.39 704.51,141.81 716.47,132.64 728.43,157.08 740.39,169.31 752.35,170.83 764.31,178.47 776.27,173.89 788.24,175.42 800.20,180.00 812.16,180.00 824.12,180.00 836.08,180.00 848.04,180.00 860.00,161.67"
    fill="none"
    stroke="#A9FEF7"
    stroke-width="2"/>


<circle
    cx="250.00"
    cy="169.31"
    r="2.5"
    fill="#A9FEF7"/>


<circle
    cx="261.96"
    cy="180.00"
    r="2.5"
    fill="#A9FEF7"/>


<circle
    cx="273.92"
    cy="180.00"
    r="2.5"
    fill="#A9FEF7"/>


<circle
    cx="285.88"
    cy="180.00"
    r="2.5"
    fill="#A9FEF7"/>


<circle
    cx="297.84"
    cy="166.25"
    r="2.5"
    fill="#A9FEF7"/>


<circle
    cx="309.80"
    cy="173.89"
    r="2.5"
    fill="#A9FEF7"/>


<circle
    cx="321.76"
    cy="173.89"
    r="2.5"
    fill="#A9FEF7"/>


<circle
    cx="333.73"
    cy="180.00"
    r="2.5"
    fill="#A9FEF7"/>


<circle
    cx="345.69"
    cy="180.00"
    r="2.5"
    fill="#A9FEF7"/>


<circle
    cx="357.65"
    cy="173.89"
    r="2.5"
    fill="#A9FEF7"/>


<circle
    cx="369.61"
    cy="173.89"
    r="2.5"
    fill="#A9FEF7"/>


<circle
    cx="381.57"
    cy="167.78"
    r="2.5"
    fill="#A9FEF7"/>


<circle
    cx="393.53"
    cy="167.78"
    r="2.5"
    fill="#A9FEF7"/>


<circle
    cx="405.49"
    cy="169.31"
    r="2.5"
    fill="#A9FEF7"/>


<circle
    cx="417.45"
    cy="175.42"
    r="2.5"
    fill="#A9FEF7"/>


<circle
    cx="429.41"
    cy="166.25"
    r="2.5"
    fill="#A9FEF7"/>


<circle
    cx="441.37"
    cy="163.19"
    r="2.5"
    fill="#A9FEF7"/>


<circle
    cx="453.33"
    cy="180.00"
    r="2.5"
    fill="#A9FEF7"/>


<circle
    cx="465.29"
    cy="180.00"
    r="2.5"
    fill="#A9FEF7"/>


<circle
    cx="477.25"
    cy="180.00"
    r="2.5"
    fill="#A9FEF7"/>


<circle
    cx="489.22"
    cy="180.00"
    r="2.5"
    fill="#A9FEF7"/>


<circle
    cx="501.18"
    cy="176.94"
    r="2.5"
    fill="#A9FEF7"/>


<circle
    cx="513.14"
    cy="178.47"
    r="2.5"
    fill="#A9FEF7"/>


<circle
    cx="525.10"
    cy="175.42"
    r="2.5"
    fill="#A9FEF7"/>


<circle
    cx="537.06"
    cy="167.78"
    r="2.5"
    fill="#A9FEF7"/>


<circle
    cx="549.02"
    cy="149.44"
    r="2.5"
    fill="#A9FEF7"/>


<circle
    cx="560.98"
    cy="121.94"
    r="2.5"
    fill="#A9FEF7"/>


<circle
    cx="572.94"
    cy="70.00"
    r="2.5"
    fill="#A9FEF7"/>


<circle
    cx="584.90"
    cy="140.28"
    r="2.5"
    fill="#A9FEF7"/>


<circle
    cx="596.86"
    cy="180.00"
    r="2.5"
    fill="#A9FEF7"/>


<circle
    cx="608.82"
    cy="155.56"
    r="2.5"
    fill="#A9FEF7"/>


<circle
    cx="620.78"
    cy="180.00"
    r="2.5"
    fill="#A9FEF7"/>


<circle
    cx="632.75"
    cy="178.47"
    r="2.5"
    fill="#A9FEF7"/>


<circle
    cx="644.71"
    cy="173.89"
    r="2.5"
    fill="#A9FEF7"/>


<circle
    cx="656.67"
    cy="178.47"
    r="2.5"
    fill="#A9FEF7"/>


<circle
    cx="668.63"
    cy="178.47"
    r="2.5"
    fill="#A9FEF7"/>


<circle
    cx="680.59"
    cy="152.50"
    r="2.5"
    fill="#A9FEF7"/>


<circle
    cx="692.55"
    cy="146.39"
    r="2.5"
    fill="#A9FEF7"/>


<circle
    cx="704.51"
    cy="141.81"
    r="2.5"
    fill="#A9FEF7"/>


<circle
    cx="716.47"
    cy="132.64"
    r="2.5"
    fill="#A9FEF7"/>


<circle
    cx="728.43"
    cy="157.08"
    r="2.5"
    fill="#A9FEF7"/>


<circle
    cx="740.39"
    cy="169.31"
    r="2.5"
    fill="#A9FEF7"/>


<circle
    cx="752.35"
    cy="170.83"
    r="2.5"
    fill="#A9FEF7"/>


<circle
    cx="764.31"
    cy="178.47"
    r="2.5"
    fill="#A9FEF7"/>


<circle
    cx="776.27"
    cy="173.89"
    r="2.5"
    fill="#A9FEF7"/>


<circle
    cx="788.24"
    cy="175.42"
    r="2.5"
    fill="#A9FEF7"/>


<circle
    cx="800.20"
    cy="180.00"
    r="2.5"
    fill="#A9FEF7"/>


<circle
    cx="812.16"
    cy="180.00"
    r="2.5"
    fill="#A9FEF7"/>


<circle
    cx="824.12"
    cy="180.00"
    r="2.5"
    fill="#A9FEF7"/>


<circle
    cx="836.08"
    cy="180.00"
    r="2.5"
    fill="#A9FEF7"/>


<circle
    cx="848.04"
    cy="180.00"
    r="2.5"
    fill="#A9FEF7"/>


<circle
    cx="860.00"
    cy="161.67"
    r="2.5"
    fill="#A9FEF7"/>

</svg>